<svg class="img-fluid" id="outputsvg" xmlns="http://www.w3.org/2000/svg" style="transform: matrix(2.8561, 0, 0, 2.8561, 4.00006, 127.2); transform-origin: 50% 50%; cursor: move; transition: none 0s ease 0s;" width="21" height="20" viewBox="0 0 210 200"><g id="l3WzvUMTQf21jViMiGPkoWP" fill="rgb(1,8,9)" style="transform: none;"><g><path id="pvVc5Rl5y" d="M0 100 l0 -100 105 0 105 0 0 100 0 100 -105 0 -105 0 0 -100z"></path></g></g><g id="l3p5rEWvn7f7Cj8yG9I7Gg6" fill="rgb(11,64,74)" style="transform: none;"><g><path id="pXvaNWZGC" d="M29 171 c-41 -42 -41 -101 1 -142 26 -26 36 -30 77 -27 25 2 48 8 50 14 3 8 -10 10 -41 7 -38 -5 -48 -2 -70 20 -34 34 -34 79 -1 112 51 52 145 16 145 -54 0 -48 -17 -45 -47 9 -15 27 -32 50 -38 50 -5 0 -20 -16 -33 -35 -17 -27 -19 -35 -7 -35 8 0 19 10 26 22 11 20 13 18 47 -37 l35 -58 19 23 c29 36 24 96 -11 131 -24 24 -38 29 -76 29 -38 0 -52 -5 -76 -29z"></path></g></g><g id="l31VHuwS83lCDy2WvH8segl" fill="rgb(18,110,128)" style="transform: none;"><g><path id="pwPQ7ubFn" d="M34 166 c-46 -46 -46 -86 0 -132 35 -35 83 -45 115 -25 10 7 0 9 -31 8 -37 -2 -52 3 -72 22 -68 64 1 170 91 140 44 -14 68 -64 52 -106 l-10 -28 -31 50 c-42 70 -43 70 -68 35 -26 -36 -19 -54 8 -20 l19 23 31 -52 c18 -28 36 -51 40 -51 11 0 32 46 32 70 0 33 -23 71 -51 86 -48 24 -87 18 -125 -20z"></path></g></g><g id="l3PNXsec6Em4fku1mLkRvzv" fill="rgb(25,151,176)" style="transform: none;"><g><path id="p1DI7ZOgQc" d="M65 191 c-64 -28 -82 -114 -32 -157 35 -30 72 -40 100 -26 19 10 18 10 -9 5 -70 -12 -129 56 -104 117 33 79 149 75 174 -7 8 -24 -2 -73 -14 -73 -4 0 -23 25 -41 55 -36 60 -41 59 -70 0 -9 -17 -7 -17 10 3 10 12 22 22 25 22 3 0 20 -23 37 -51 29 -46 33 -49 48 -35 25 26 20 91 -10 121 -27 28 -82 40 -114 26z"></path></g></g></svg>