<svg class="img-fluid" id="outputsvg" xmlns="http://www.w3.org/2000/svg" style="transform: matrix(8.15731, 0, 0, 8.15731, 0, 114.4); transform-origin: 50% 50%; cursor: move;" width="21" height="20" viewBox="0 0 210 200"><g id="l3WzvUMTQf21jViMiGPkoWP" fill="rgb(14,5,5)" style="transform: none;"><g><path id="pvVc5Rl5y" d="M0 100 l0 -100 105 0 105 0 0 100 0 100 -105 0 -105 0 0 -100z"></path></g></g><g id="lKNTcfReOnCi2xDsd1FWJ8" fill="rgb(89,30,30)" style="transform: none;"><g><path id="pAvdc4LGx" d="M29 171 c-41 -42 -41 -101 1 -142 26 -26 36 -30 77 -27 25 2 48 8 50 14 3 8 -10 10 -41 7 -38 -5 -48 -2 -70 20 -34 34 -34 79 -1 112 51 52 145 16 145 -54 0 -48 -14 -44 -49 15 -19 29 -35 54 -36 54 -1 0 -14 -18 -29 -40 -27 -40 -18 -54 15 -24 17 15 20 13 50 -36 l32 -53 19 23 c29 36 24 96 -11 131 -24 24 -38 29 -76 29 -38 0 -52 -5 -76 -29z"></path></g></g><g id="l6gy8XlZsNzq722CZZfJ0Wb" fill="rgb(145,49,49)" style="transform: none;"><g><path id="p15L4BKPfG" d="M51 186 c-59 -33 -67 -102 -17 -152 35 -35 83 -45 116 -24 11 7 1 9 -33 8 -37 0 -54 5 -72 22 -34 32 -34 88 0 120 56 52 145 15 145 -60 0 -20 -3 -40 -6 -43 -4 -4 -22 18 -41 48 -19 30 -36 55 -38 55 -2 0 -13 -14 -25 -31 -26 -35 -19 -52 8 -19 l18 22 31 -51 c18 -28 36 -51 41 -51 11 0 32 45 32 70 0 76 -90 124 -159 86z"></path></g></g><g id="l2Zqxss0JJwSOD9uXc14d8V" fill="rgb(218,74,74)" style="transform: none;"><g><path id="pmHJSqldz" d="M65 191 c-61 -27 -80 -108 -36 -155 28 -30 81 -43 108 -27 15 9 12 10 -13 5 -69 -13 -130 54 -104 116 13 31 54 60 85 60 29 0 71 -28 83 -55 15 -33 15 -47 -1 -69 -12 -17 -16 -13 -47 38 l-34 56 -23 -27 c-30 -37 -29 -52 1 -24 l25 23 32 -52 c27 -44 34 -50 46 -38 7 8 16 30 19 50 5 29 1 41 -22 67 -31 34 -83 48 -119 32z"></path></g></g></svg>