<?xml version="1.0" encoding="UTF-8" standalone="no"?>
<!DOCTYPE svg PUBLIC "-//W3C//DTD SVG 1.1//EN" "http://www.w3.org/Graphics/SVG/1.1/DTD/svg11.dtd">
<svg xmlns="http://www.w3.org/2000/svg" version="1.1" viewBox="0 0 1194 1570">
<path stroke="#808080" stroke-width="2.00" fill="none" stroke-linecap="butt" vector-effect="non-scaling-stroke" d="
  M 28.17 1132.94
  A 0.32 0.32 0.0 0 0 28.60 1133.25
  L 845.72 826.12
  A 0.32 0.32 0.0 0 0 845.83 825.60
  L 88.56 51.41
  A 0.32 0.32 0.0 0 0 88.01 51.62
  L 28.17 1132.94"
/>
<path fill="#ffffff" d="
  M 9.03 1158.96
  L 72.58 10.66
  A 0.35 0.35 0.0 0 1 73.18 10.44
  L 877.37 832.57
  A 0.35 0.35 0.0 0 1 877.24 833.14
  L 9.51 1159.30
  A 0.35 0.35 0.0 0 1 9.03 1158.96
  Z
  M 28.17 1132.94
  A 0.32 0.32 0.0 0 0 28.60 1133.25
  L 845.72 826.12
  A 0.32 0.32 0.0 0 0 845.83 825.60
  L 88.56 51.41
  A 0.32 0.32 0.0 0 0 88.01 51.62
  L 28.17 1132.94
  Z"
/>
<path fill="#000000" d="
  M 28.17 1132.94
  L 88.01 51.62
  A 0.32 0.32 0.0 0 1 88.56 51.41
  L 845.83 825.60
  A 0.32 0.32 0.0 0 1 845.72 826.12
  L 28.60 1133.25
  A 0.32 0.32 0.0 0 1 28.17 1132.94
  Z"
/>
</svg>
