<?xml version="1.0" encoding="UTF-8" standalone="no"?>
<!DOCTYPE svg PUBLIC "-//W3C//DTD SVG 1.1//EN" "http://www.w3.org/Graphics/SVG/1.1/DTD/svg11.dtd">
<svg xmlns="http://www.w3.org/2000/svg" version="1.1" viewBox="0 0 285 351">
<path stroke="#918f90" stroke-width="2.00" fill="none" stroke-linecap="butt" vector-effect="non-scaling-stroke" d="
  M 47.06 255.94
  Q 36.03 250.02 31.24 248.76
  C 14.72 244.42 0.73 261.94 8.49 277.08
  Q 9.92 279.87 14.31 284.32
  Q 34.14 304.42 54.29 324.21
  C 64.26 334.01 75.62 339.78 88.99 344.17
  C 91.74 345.08 95.60 345.76 98.00 345.76
  Q 157.92 345.73 217.83 345.77
  C 228.04 345.78 237.27 346.74 247.28 343.79
  C 258.41 340.52 272.68 337.95 277.51 326.17
  Q 278.99 322.56 279.00 314.14
  Q 279.02 248.05 278.98 181.96
  C 278.97 168.62 272.20 157.05 257.02 159.08
  C 249.70 160.06 245.11 164.89 242.28 171.36
  C 240.34 175.79 235.92 177.93 231.89 174.27
  Q 229.85 172.43 230.03 169.69
  C 231.55 146.55 203.09 138.32 193.25 160.81
  C 190.77 166.48 185.27 166.26 181.45 161.50
  A 1.08 1.02 -65.5 0 1 181.23 160.85
  C 181.36 155.19 181.89 147.41 179.29 142.36
  C 171.75 127.71 152.29 128.38 145.30 143.29
  Q 143.97 146.12 142.68 146.95
  C 139.30 149.11 132.91 147.99 132.93 143.25
  Q 133.15 99.64 132.74 27.50
  C 132.58 0.04 95.38 -0.15 95.08 25.75
  Q 94.63 64.55 94.77 103.35
  Q 94.77 103.55 94.94 104.11
  Q 94.99 104.30 94.99 104.50
  Q 95.00 185.26 95.00 266.03
  C 94.99 273.22 91.53 277.29 84.13 273.84
  Q 55.94 260.70 47.06 255.94"
/>
<path fill="#ffffff" d="
  M 238.94 351.00
  L 95.93 351.04
  Q 79.40 348.15 65.80 340.22
  C 60.33 337.02 55.65 332.98 50.59 328.00
  Q 30.06 307.75 9.69 287.34
  Q -1.39 276.23 1.57 263.07
  C 4.58 249.68 16.40 241.18 30.16 243.18
  Q 34.36 243.80 40.82 246.97
  Q 64.03 258.39 88.06 269.96
  A 1.01 1.00 12.9 0 0 89.50 269.06
  Q 89.50 185.84 89.50 101.50
  Q 89.50 101.30 89.44 101.11
  Q 89.26 100.54 89.26 100.35
  Q 89.11 46.05 89.60 23.82
  Q 89.70 19.32 91.90 14.87
  C 101.39 -4.31 129.55 -3.07 136.44 17.44
  Q 137.99 22.05 137.99 33.85
  Q 138.01 87.65 138.00 141.91
  A 1.00 1.00 0.0 0 0 139.06 142.91
  Q 140.62 142.81 140.45 141.19
  A 0.99 0.96 57.2 0 1 140.56 140.63
  C 150.96 120.39 178.94 121.94 185.60 144.11
  C 187.02 148.85 186.26 154.91 186.69 159.32
  Q 186.82 160.64 187.89 159.90
  A 1.02 1.02 0.0 0 0 188.28 159.39
  C 197.68 131.05 238.07 140.19 235.31 170.20
  A 0.82 0.80 23.2 0 0 235.59 170.87
  C 236.34 171.53 236.85 170.79 237.12 170.11
  C 245.68 148.25 275.21 147.26 282.76 170.05
  Q 284.23 174.48 284.23 184.25
  Q 284.26 251.37 284.25 318.51
  Q 284.25 323.78 282.54 328.47
  C 277.59 342.06 261.49 345.04 249.56 348.84
  C 245.89 350.01 242.61 350.46 238.94 351.00
  Z
  M 47.06 255.94
  Q 36.03 250.02 31.24 248.76
  C 14.72 244.42 0.73 261.94 8.49 277.08
  Q 9.92 279.87 14.31 284.32
  Q 34.14 304.42 54.29 324.21
  C 64.26 334.01 75.62 339.78 88.99 344.17
  C 91.74 345.08 95.60 345.76 98.00 345.76
  Q 157.92 345.73 217.83 345.77
  C 228.04 345.78 237.27 346.74 247.28 343.79
  C 258.41 340.52 272.68 337.95 277.51 326.17
  Q 278.99 322.56 279.00 314.14
  Q 279.02 248.05 278.98 181.96
  C 278.97 168.62 272.20 157.05 257.02 159.08
  C 249.70 160.06 245.11 164.89 242.28 171.36
  C 240.34 175.79 235.92 177.93 231.89 174.27
  Q 229.85 172.43 230.03 169.69
  C 231.55 146.55 203.09 138.32 193.25 160.81
  C 190.77 166.48 185.27 166.26 181.45 161.50
  A 1.08 1.02 -65.5 0 1 181.23 160.85
  C 181.36 155.19 181.89 147.41 179.29 142.36
  C 171.75 127.71 152.29 128.38 145.30 143.29
  Q 143.97 146.12 142.68 146.95
  C 139.30 149.11 132.91 147.99 132.93 143.25
  Q 133.15 99.64 132.74 27.50
  C 132.58 0.04 95.38 -0.15 95.08 25.75
  Q 94.63 64.55 94.77 103.35
  Q 94.77 103.55 94.94 104.11
  Q 94.99 104.30 94.99 104.50
  Q 95.00 185.26 95.00 266.03
  C 94.99 273.22 91.53 277.29 84.13 273.84
  Q 55.94 260.70 47.06 255.94
  Z"
/>
<path fill="#231f20" d="
  M 47.06 255.94
  Q 55.94 260.70 84.13 273.84
  C 91.53 277.29 94.99 273.22 95.00 266.03
  Q 95.00 185.26 94.99 104.50
  Q 94.99 104.30 94.94 104.11
  Q 94.77 103.55 94.77 103.35
  Q 94.63 64.55 95.08 25.75
  C 95.38 -0.15 132.58 0.04 132.74 27.50
  Q 133.15 99.64 132.93 143.25
  C 132.91 147.99 139.30 149.11 142.68 146.95
  Q 143.97 146.12 145.30 143.29
  C 152.29 128.38 171.75 127.71 179.29 142.36
  C 181.89 147.41 181.36 155.19 181.23 160.85
  A 1.08 1.02 -65.5 0 0 181.45 161.50
  C 185.27 166.26 190.77 166.48 193.25 160.81
  C 203.09 138.32 231.55 146.55 230.03 169.69
  Q 229.85 172.43 231.89 174.27
  C 235.92 177.93 240.34 175.79 242.28 171.36
  C 245.11 164.89 249.70 160.06 257.02 159.08
  C 272.20 157.05 278.97 168.62 278.98 181.96
  Q 279.02 248.05 279.00 314.14
  Q 278.99 322.56 277.51 326.17
  C 272.68 337.95 258.41 340.52 247.28 343.79
  C 237.27 346.74 228.04 345.78 217.83 345.77
  Q 157.92 345.73 98.00 345.76
  C 95.60 345.76 91.74 345.08 88.99 344.17
  C 75.62 339.78 64.26 334.01 54.29 324.21
  Q 34.14 304.42 14.31 284.32
  Q 9.92 279.87 8.49 277.08
  C 0.73 261.94 14.72 244.42 31.24 248.76
  Q 36.03 250.02 47.06 255.94
  Z"
/>
</svg>
